<mxfile host="app.diagrams.net" modified="2023-08-07T11:14:41.910Z" agent="Mozilla/5.0 (Windows NT 10.0; Win64; x64) AppleWebKit/537.36 (KHTML, like Gecko) Chrome/115.0.0.0 Safari/537.36 Edg/115.0.0.0" version="21.6.6" etag="g9EVbvMAGE3KioV6jRty" type="github">
  <diagram name="Page-1" id="yIeaWXUQsL4Ng_KSl2O-">
    <mxGraphModel>
      <root>
        <mxCell id="0" />
        <mxCell id="1" parent="0" />
      </root>
    </mxGraphModel>
  </diagram>
</mxfile>
